<svg width="220" height="220" viewBox="0 0 220 220" fill="none" xmlns="http://www.w3.org/2000/svg">
  <defs>
    <filter id="glow" x="-20%" y="-20%" width="140%" height="140%">
      <feGaussianBlur stdDeviation="3.5" result="blur" />
      <feComposite in="SourceGraphic" in2="blur" operator="over" />
    </filter>
    <linearGradient id="gold" x1="0%" y1="0%" x2="100%" y2="100%">
      <stop offset="0%" style="stop-color:#FFE066;stop-opacity:1" />
      <stop offset="100%" style="stop-color:#C29900;stop-opacity:1" />
    </linearGradient>
  </defs>

  <circle cx="110" cy="110" r="100" fill="#121212" stroke="url(#gold)" stroke-width="4"/>
  
  <circle cx="110" cy="110" r="92" fill="none" stroke="#FFE066" stroke-width="1" stroke-dasharray="6 4" opacity="0.3"/>

  <g transform="translate(72, 58) scale(3.2)">
    <path d="M12 22C16.4 22 20 18.4 20 14C20 8 12 2 12 2C12 2 4 8 4 14C4 18.4 7.6 22 12 22Z" fill="#FF5500" filter="url(#glow)">
        <animate attributeName="opacity" values="0.8;1;0.8" dur="2.5s" repeatCount="indefinite" />
    </path>
    <path d="M12 18C14.2 18 16 16.2 16 14C16 11 12 8 12 8C12 8 8 11 8 14C8 16.2 9.8 18 12 18Z" fill="#FFAA00" />
  </g>

  <text x="110" y="135" fill="white" font-family="Arial Black, Impact, sans-serif" font-size="48" font-weight="900" text-anchor="middle" filter="url(#glow)">19</text>
  
  <text x="110" y="165" fill="#FFE066" font-family="'Segoe UI', Arial, sans-serif" font-size="16" font-weight="bold" text-anchor="middle" style="letter-spacing:1.5px;">DAYS STREAK</text>

</svg>