<svg width="495" height="195" viewBox="0 0 495 195" fill="none" xmlns="http://www.w3.org/2000/svg">
  <rect width="495" height="195" rx="8" fill="#0D1117" stroke="#30363D" stroke-width="1"/>
  
  <style>
    .header { font: 600 14px 'Segoe UI', Arial, sans-serif; fill: #58A6FF; }
    .stat { font: 800 32px 'Segoe UI', Arial, sans-serif; fill: #FFFFFF; }
    .streak-num { font: 800 36px 'Segoe UI', Arial, sans-serif; fill: #FFD700; }
    .pink-text { font: 600 14px 'Segoe UI', Arial, sans-serif; fill: #FF1E6D; }
  </style>

  <g transform="translate(0, 0)">
    <text x="82.5" y="80" text-anchor="middle" class="stat">201</text>
    <text x="82.5" y="115" text-anchor="middle" class="header">Total Contributions</text>
    <text x="82.5" y="140" text-anchor="middle" font-size="10" fill="#8B949E" font-family="Arial">Since Joining</text>
  </g>

  <line x1="165" y1="40" x2="165" y2="155" stroke="#30363D" stroke-width="1"/>

  <g transform="translate(165, 0)">
    <circle cx="82.5" cy="85" r="45" stroke="#FF1E6D" stroke-width="5" fill="none" opacity="0.8">
        <animate attributeName="stroke-opacity" values="0.8;0.4;0.8" dur="2s" repeatCount="indefinite" />
    </circle>
    <path d="M82.5 30C82.5 30 78 36 78 40C78 42.5 80 44.5 82.5 44.5C85 44.5 87 42.5 87 40C87 36 82.5 30 82.5 30Z" fill="#FF1E6D"/>
    
    <text x="82.5" y="98" text-anchor="middle" class="streak-num">19</text>
    <text x="82.5" y="150" text-anchor="middle" class="pink-text" style="font-weight:bold; letter-spacing:1px;">CURRENT STREAK</text>
  </g>

  <line x1="330" y1="40" x2="330" y2="155" stroke="#30363D" stroke-width="1"/>

  <g transform="translate(330, 0)">
    <text x="82.5" y="80" text-anchor="middle" class="stat">19</text>
    <text x="82.5" y="115" text-anchor="middle" class="header">Longest Streak</text>
    <text x="82.5" y="140" text-anchor="middle" font-size="10" fill="#8B949E" font-family="Arial">Personal Best</text>
  </g>
</svg>